{"accessors":[{"bufferView":0,"byteOffset":0,"componentType":5126,"count":59,"max":[-2.8715479373931885,4.080239295959473,0.0],"min":[-3.0811595916748047,3.87247371673584,-0.008100000210106373],"type":"VEC3"},{"bufferView":1,"byteOffset":0,"componentType":5126,"count":59,"normalized":false,"type":"VEC2"},{"bufferView":2,"byteOffset":0,"componentType":5125,"count":237,"type":"SCALAR"},{"bufferView":4,"byteOffset":0,"componentType":5126,"count":130,"max":[-2.783017158508301,4.239896297454834,3.0],"min":[-3.0217976570129395,3.965989828109741,2.9820001125335693],"type":"VEC3"},{"bufferView":5,"byteOffset":0,"componentType":5126,"count":130,"normalized":false,"type":"VEC2"},{"bufferView":6,"byteOffset":0,"componentType":5125,"count":573,"type":"SCALAR"},{"bufferView":8,"byteOffset":0,"componentType":5126,"count":161,"max":[13.165431022644043,8.82590103149414,6.0],"min":[12.980159759521484,8.561785697937012,5.977499961853027],"type":"VEC3"},{"bufferView":9,"byteOffset":0,"componentType":5126,"count":161,"normalized":false,"type":"VEC2"},{"bufferView":10,"byteOffset":0,"componentType":5125,"count":720,"type":"SCALAR"},{"bufferView":12,"byteOffset":0,"componentType":5126,"count":1823,"max":[13.094650268554688,8.670345306396484,9.0],"min":[6.051366806030273,-1.4823368787765503,8.759699821472168],"type":"VEC3"},{"bufferView":13,"byteOffset":0,"componentType":5126,"count":1823,"normalized":false,"type":"VEC2"},{"bufferView":14,"byteOffset":0,"componentType":5125,"count":8466,"type":"SCALAR"},{"bufferView":16,"byteOffset":0,"componentType":5126,"count":466,"max":[9.552590370178223,-0.43412142992019653,12.0],"min":[7.760586738586426,-4.928032398223877,11.937000274658203],"type":"VEC3"},{"bufferView":17,"byteOffset":0,"componentType":5126,"count":466,"normalized":false,"type":"VEC2"},{"bufferView":18,"byteOffset":0,"componentType":5125,"count":2004,"type":"SCALAR"},{"bufferView":20,"byteOffset":0,"componentType":5126,"count":576,"max":[11.532174110412598,6.960247993469238,15.0],"min":[4.719728469848633,-4.165338516235352,14.923500061035156],"type":"VEC3"},{"bufferView":21,"byteOffset":0,"componentType":5126,"count":576,"normalized":false,"type":"VEC2"},{"bufferView":22,"byteOffset":0,"componentType":5125,"count":1638,"type":"SCALAR"},{"bufferView":24,"byteOffset":0,"componentType":5126,"count":583,"max":[9.332592010498047,0.3004544973373413,18.0],"min":[4.4804277420043945,-1.736398696899414,17.92169952392578],"type":"VEC3"},{"bufferView":25,"byteOffset":0,"componentType":5126,"count":583,"normalized":false,"type":"VEC2"},{"bufferView":26,"byteOffset":0,"componentType":5125,"count":2184,"type":"SCALAR"},{"bufferView":28,"byteOffset":0,"componentType":5126,"count":2985,"max":[12.718838691711426,7.103092670440674,21.0],"min":[-2.941467523574829,-3.7273166179656982,20.6112003326416],"type":"VEC3"},{"bufferView":29,"byteOffset":0,"componentType":5126,"count":2985,"normalized":false,"type":"VEC2"},{"bufferView":30,"byteOffset":0,"componentType":5125,"count":12747,"type":"SCALAR"}],"asset":{"generator":"VTK","version":"2.0"},"bufferViews":[{"buffer":0,"byteLength":708,"byteOffset":0},{"buffer":1,"byteLength":472,"byteOffset":0},{"buffer":2,"byteLength":948,"byteOffset":0},{"buffer":3,"byteLength":271,"byteOffset":0},{"buffer":4,"byteLength":1560,"byteOffset":0},{"buffer":5,"byteLength":1040,"byteOffset":0},{"buffer":6,"byteLength":2292,"byteOffset":0},{"buffer":7,"byteLength":271,"byteOffset":0},{"buffer":8,"byteLength":1932,"byteOffset":0},{"buffer":9,"byteLength":1288,"byteOffset":0},{"buffer":10,"byteLength":2880,"byteOffset":0},{"buffer":11,"byteLength":271,"byteOffset":0},{"buffer":12,"byteLength":21876,"byteOffset":0},{"buffer":13,"byteLength":14584,"byteOffset":0},{"buffer":14,"byteLength":33864,"byteOffset":0},{"buffer":15,"byteLength":271,"byteOffset":0},{"buffer":16,"byteLength":5592,"byteOffset":0},{"buffer":17,"byteLength":3728,"byteOffset":0},{"buffer":18,"byteLength":8016,"byteOffset":0},{"buffer":19,"byteLength":271,"byteOffset":0},{"buffer":20,"byteLength":6912,"byteOffset":0},{"buffer":21,"byteLength":4608,"byteOffset":0},{"buffer":22,"byteLength":6552,"byteOffset":0},{"buffer":23,"byteLength":271,"byteOffset":0},{"buffer":24,"byteLength":6996,"byteOffset":0},{"buffer":25,"byteLength":4664,"byteOffset":0},{"buffer":26,"byteLength":8736,"byteOffset":0},{"buffer":27,"byteLength":271,"byteOffset":0},{"buffer":28,"byteLength":35820,"byteOffset":0},{"buffer":29,"byteLength":23880,"byteOffset":0},{"buffer":30,"byteLength":50988,"byteOffset":0},{"buffer":31,"byteLength":271,"byteOffset":0}],"buffers":[{"byteLength":708,"uri":"data:application/octet-stream;base64,"},{"byteLength":472,"uri":"data:application/octet-stream;base64,"},{"byteLength":948,"uri":"data:application/octet-stream;base64,"},{"byteLength":271,"uri":"data:application/octet-stream;base64,"},{"byteLength":1560,"uri":"data:application/octet-stream;base64,"},{"byteLength":1040,"uri":"data:application/octet-stream;base64,"},{"byteLength":2292,"uri":"data:application/octet-stream;base64,"},{"byteLength":271,"uri":"data:application/octet-stream;base64,"},{"byteLength":1932,"uri":"data:application/octet-stream;base64,"},{"byteLength":1288,"uri":"data:application/octet-stream;base64,"},{"byteLength":2880,"uri":"data:application/octet-stream;base64,"},{"byteLength":271,"uri":"data:application/octet-stream;base64,"},{"byteLength":21876,"uri":"data:application/octet-stream;base64,"},{"byteLength":14584,"uri":"data:application/octet-stream;base64,"},{"byteLength":33864,"uri":"data:application/octet-stream;base64,"},{"byteLength":271,"uri":"data:application/octet-stream;base64,"},{"byteLength":5592,"uri":"data:application/octet-stream;base64,"},{"byteLength":3728,"uri":"data:application/octet-stream;base64,"},{"byteLength":8016,"uri":"data:application/octet-stream;base64,"},{"byteLength":271,"uri":"data:application/octet-stream;base64,"},{"byteLength":6912,"uri":"data:application/octet-stream;base64,"},{"byteLength":4608,"uri":"data:application/octet-stream;base64,"},{"byteLength":6552,"uri":"data:application/octet-stream;base64,"},{"byteLength":271,"uri":"data:application/octet-stream;base64,"},{"byteLength":6996,"uri":"data:application/octet-stream;base64,"},{"byteLength":4664,"uri":"data:application/octet-stream;base64,"},{"byteLength":8736,"uri":"data:application/octet-stream;base64,"},{"byteLength":271,"uri":"data:application/octet-stream;base64,"},{"byteLength":35820,"uri":"data:application/octet-stream;base64,"},{"byteLength":23880,"uri":"data:application/octet-stream;base64,"},{"byteLength":50988,"uri":"data:application/octet-stream;base64,"},{"byteLength":271,"uri":"data:application/octet-stream;base64,"}],"cameras":[{"perspective":{"aspectRatio":1.3333333333333333,"yfov":0.5235987755982988,"zfar":1000.01,"znear":0.01},"type":"perspective"}],"images":[{"bufferView":3,"mimeType":"image/png"},{"bufferView":7,"mimeType":"image/png"},{"bufferView":11,"mimeType":"image/png"},{"bufferView":15,"mimeType":"image/png"},{"bufferView":19,"mimeType":"image/png"},{"bufferView":23,"mimeType":"image/png"},{"bufferView":27,"mimeType":"image/png"},{"bufferView":31,"mimeType":"image/png"}],"materials":[{"pbrMetallicRoughness":{"baseColorFactor":[1.0,1.0,1.0,1.0],"baseColorTexture":{"index":0,"texCoord":0},"metallicFactor":0.0,"roughnessFactor":1.0}},{"pbrMetallicRoughness":{"baseColorFactor":[1.0,1.0,1.0,1.0],"baseColorTexture":{"index":1,"texCoord":0},"metallicFactor":0.0,"roughnessFactor":1.0}},{"pbrMetallicRoughness":{"baseColorFactor":[1.0,1.0,1.0,1.0],"baseColorTexture":{"index":2,"texCoord":0},"metallicFactor":0.0,"roughnessFactor":1.0}},{"pbrMetallicRoughness":{"baseColorFactor":[1.0,1.0,1.0,1.0],"baseColorTexture":{"index":3,"texCoord":0},"metallicFactor":0.0,"roughnessFactor":1.0}},{"pbrMetallicRoughness":{"baseColorFactor":[1.0,1.0,1.0,1.0],"baseColorTexture":{"index":4,"texCoord":0},"metallicFactor":0.0,"roughnessFactor":1.0}},{"pbrMetallicRoughness":{"baseColorFactor":[1.0,1.0,1.0,1.0],"baseColorTexture":{"index":5,"texCoord":0},"metallicFactor":0.0,"roughnessFactor":1.0}},{"pbrMetallicRoughness":{"baseColorFactor":[1.0,1.0,1.0,1.0],"baseColorTexture":{"index":6,"texCoord":0},"metallicFactor":0.0,"roughnessFactor":1.0}},{"pbrMetallicRoughness":{"baseColorFactor":[1.0,1.0,1.0,1.0],"baseColorTexture":{"index":7,"texCoord":0},"metallicFactor":0.0,"roughnessFactor":1.0}}],"meshes":[{"name":"mesh0","primitives":[{"attributes":{"POSITION":0,"TEXCOORD_0":1},"indices":2,"material":0,"mode":4}]},{"name":"mesh1","primitives":[{"attributes":{"POSITION":3,"TEXCOORD_0":4},"indices":5,"material":1,"mode":4}]},{"name":"mesh2","primitives":[{"attributes":{"POSITION":6,"TEXCOORD_0":7},"indices":8,"material":2,"mode":4}]},{"name":"mesh3","primitives":[{"attributes":{"POSITION":9,"TEXCOORD_0":10},"indices":11,"material":3,"mode":4}]},{"name":"mesh4","primitives":[{"attributes":{"POSITION":12,"TEXCOORD_0":13},"indices":14,"material":4,"mode":4}]},{"name":"mesh5","primitives":[{"attributes":{"POSITION":15,"TEXCOORD_0":16},"indices":17,"material":5,"mode":4}]},{"name":"mesh6","primitives":[{"attributes":{"POSITION":18,"TEXCOORD_0":19},"indices":20,"material":6,"mode":4}]},{"name":"mesh7","primitives":[{"attributes":{"POSITION":21,"TEXCOORD_0":22},"indices":23,"material":7,"mode":4}]}],"nodes":[{"matrix":[2.220446049250314e-16,-3.330669073875469e-16,1.0000000000000002,0.0,1.0,2.220446049250313e-16,-2.220446049250313e-16,0.0,-2.2204460492503128e-16,1.0000000000000002,3.3306690738754696e-16,0.0,0.0,0.0,0.0,1.0],"mesh":0,"name":"mesh0"},{"matrix":[2.220446049250314e-16,-3.330669073875469e-16,1.0000000000000002,0.0,1.0,2.220446049250313e-16,-2.220446049250313e-16,0.0,-2.2204460492503128e-16,1.0000000000000002,3.3306690738754696e-16,0.0,0.0,0.0,0.0,1.0],"mesh":1,"name":"mesh1"},{"matrix":[2.220446049250314e-16,-3.330669073875469e-16,1.0000000000000002,0.0,1.0,2.220446049250313e-16,-2.220446049250313e-16,0.0,-2.2204460492503128e-16,1.0000000000000002,3.3306690738754696e-16,0.0,0.0,0.0,0.0,1.0],"mesh":2,"name":"mesh2"},{"matrix":[2.220446049250314e-16,-3.330669073875469e-16,1.0000000000000002,0.0,1.0,2.220446049250313e-16,-2.220446049250313e-16,0.0,-2.2204460492503128e-16,1.0000000000000002,3.3306690738754696e-16,0.0,0.0,0.0,0.0,1.0],"mesh":3,"name":"mesh3"},{"matrix":[2.220446049250314e-16,-3.330669073875469e-16,1.0000000000000002,0.0,1.0,2.220446049250313e-16,-2.220446049250313e-16,0.0,-2.2204460492503128e-16,1.0000000000000002,3.3306690738754696e-16,0.0,0.0,0.0,0.0,1.0],"mesh":4,"name":"mesh4"},{"matrix":[2.220446049250314e-16,-3.330669073875469e-16,1.0000000000000002,0.0,1.0,2.220446049250313e-16,-2.220446049250313e-16,0.0,-2.2204460492503128e-16,1.0000000000000002,3.3306690738754696e-16,0.0,0.0,0.0,0.0,1.0],"mesh":5,"name":"mesh5"},{"matrix":[2.220446049250314e-16,-3.330669073875469e-16,1.0000000000000002,0.0,1.0,2.220446049250313e-16,-2.220446049250313e-16,0.0,-2.2204460492503128e-16,1.0000000000000002,3.3306690738754696e-16,0.0,0.0,0.0,0.0,1.0],"mesh":6,"name":"mesh6"},{"matrix":[2.220446049250314e-16,-3.330669073875469e-16,1.0000000000000002,0.0,1.0,2.220446049250313e-16,-2.220446049250313e-16,0.0,-2.2204460492503128e-16,1.0000000000000002,3.3306690738754696e-16,0.0,0.0,0.0,0.0,1.0],"mesh":7,"name":"mesh7"},{"camera":0,"matrix":[1.0,-0.0,0.0,-0.0,-0.0,1.0,-0.0,0.0,0.0,-0.0,1.0,-0.0,-0.0,0.0,1.0,1.0],"name":"Camera Node"},{"children":[0,1,2,3,4,5,6,7,8],"name":"Renderer Node"}],"samplers":[{"magFilter":9728,"minFilter":9728,"wrapS":33071,"wrapT":33071},{"magFilter":9728,"minFilter":9728,"wrapS":33071,"wrapT":33071},{"magFilter":9728,"minFilter":9728,"wrapS":33071,"wrapT":33071},{"magFilter":9728,"minFilter":9728,"wrapS":33071,"wrapT":33071},{"magFilter":9728,"minFilter":9728,"wrapS":33071,"wrapT":33071},{"magFilter":9728,"minFilter":9728,"wrapS":33071,"wrapT":33071},{"magFilter":9728,"minFilter":9728,"wrapS":33071,"wrapT":33071},{"magFilter":9728,"minFilter":9728,"wrapS":33071,"wrapT":33071}],"scene":0,"scenes":[{"name":"Layer 0","nodes":[9]}],"textures":[{"sampler":0,"source":0},{"sampler":1,"source":1},{"sampler":2,"source":2},{"sampler":3,"source":3},{"sampler":4,"source":4},{"sampler":5,"source":5},{"sampler":6,"source":6},{"sampler":7,"source":7}]}